<?xml version="1.0" encoding="UTF-8"?>
<svg version="1.1" xmlns="http://www.w3.org/2000/svg" width="310" height="310">
<path d="M0 0 C3.94974585 1.7426302 7.63284418 3.85012887 11.32739258 6.07910156 C13.05212465 7.11874588 14.79050448 8.1314483 16.53320312 9.140625 C32.13318508 18.34362187 32.13318508 18.34362187 35 25 C35.69840203 29.46652461 35.42463246 33.05842367 33.5625 37.1875 C27.5059411 43.83494269 18.82151522 47.93408171 11.0625 52.3125 C10.11826172 52.84939453 9.17402344 53.38628906 8.20117188 53.93945312 C-1.6602921 59.53726338 -1.6602921 59.53726338 -8 59 C-10.75329021 57.20437595 -12.52627461 55.94745078 -14 53 C-14.08308638 51.62451844 -14.10736016 50.24514204 -14.09765625 48.8671875 C-14.09443359 48.06152344 -14.09121094 47.25585938 -14.08789062 46.42578125 C-14.07951172 45.58402344 -14.07113281 44.74226563 -14.0625 43.875 C-14.05798828 43.02550781 -14.05347656 42.17601562 -14.04882812 41.30078125 C-14.03702874 39.20049091 -14.01909306 37.1002367 -14 35 C-37.49678274 38.61938827 -57.94628703 44.83596713 -76 61 C-76.89332031 61.79921875 -77.78664063 62.5984375 -78.70703125 63.421875 C-90.65114741 74.71449391 -97.98098211 87.84985838 -104 103 C-104.391875 103.97710937 -104.78375 104.95421875 -105.1875 105.9609375 C-105.5896875 106.97027344 -105.5896875 106.97027344 -106 108 C-104.7625 108.2784375 -104.7625 108.2784375 -103.5 108.5625 C-95.4056237 111.88697598 -90.4110647 118.0798884 -87 126 C-84.52436416 133.7919051 -85.31216044 142.32143942 -88.671875 149.6796875 C-92.4524992 156.28466036 -97.13544338 160.76962041 -104 164 C-104.66 164 -105.32 164 -106 164 C-99.55003604 180.48519399 -92.4796704 194.19975091 -80 207 C-79.36964844 207.66902344 -78.73929687 208.33804688 -78.08984375 209.02734375 C-74.65472724 212.59835497 -71.23167158 215.41971245 -67 218 C-68.40152979 222.45941297 -70.66563504 224.79491575 -74 228 C-93.69755209 211.61993036 -110.56935121 192.58768644 -117 167 C-117 166.34 -117 165.68 -117 165 C-117.61746094 164.99742187 -118.23492187 164.99484375 -118.87109375 164.9921875 C-127.56336372 164.5952802 -132.6888523 161.23756664 -138.8125 155.25 C-144.20021017 147.24540203 -146.23708594 139.64161827 -145 130 C-142.99769694 121.80122062 -138.64709347 115.07066787 -131.5703125 110.39453125 C-126.53729035 107.66384902 -122.70821932 106.37954138 -117 107 C-116.88785156 106.42636719 -116.77570313 105.85273437 -116.66015625 105.26171875 C-110.53006893 78.85827074 -92.43778732 55.70471574 -69.88867188 41.16113281 C-53.22465555 30.91629547 -33.7424509 24 -14 24 C-14.04640625 22.75863281 -14.0928125 21.51726563 -14.140625 20.23828125 C-14.17815421 18.59637829 -14.21455314 16.95444923 -14.25 15.3125 C-14.28351563 14.49587891 -14.31703125 13.67925781 -14.3515625 12.83789062 C-14.41862016 8.69707993 -14.35846774 6.5725115 -12.109375 2.98046875 C-8.41279134 -0.49021257 -4.89909567 -0.9255004 0 0 Z M-4 11 C-4 23.21 -4 35.42 -4 48 C7.30133821 42.05390999 7.30133821 42.05390999 18.4375 35.8125 C19.50871094 35.20019531 20.57992187 34.58789062 21.68359375 33.95703125 C24.22418855 32.23304441 24.22418855 32.23304441 24.43237305 29.5793457 C24.254552 26.86634294 24.254552 26.86634294 22.07568359 25.28662109 C21.19219238 24.78727051 20.30870117 24.28791992 19.3984375 23.7734375 C18.43292969 23.2165625 17.46742188 22.6596875 16.47265625 22.0859375 C15.45042969 21.52132812 14.42820313 20.95671875 13.375 20.375 C12.37597656 19.80265625 11.37695312 19.2303125 10.34765625 18.640625 C5.61987675 15.94798237 0.87072489 13.43536244 -4 11 Z M-130.4375 124.625 C-134.8022502 130.07201796 -134.63752465 135.14885487 -134 142 C-131.35937562 147.58593618 -126.98002759 151.39536976 -121.5625 154.3125 C-115.67011866 155.8933828 -111.19024099 155.20942116 -105.9296875 152.34375 C-101.75594124 149.4373356 -98.60879352 145.82638055 -97 141 C-96.46614858 135.03523706 -96.44729851 130.04254405 -100 125 C-104.58170487 120.29385377 -108.67868498 117.37599793 -115.3125 116.625 C-121.76254258 117.28093653 -126.18177625 119.74822566 -130.4375 124.625 Z " fill="#5552FF" transform="translate(164,19)"/>
<path d="M0 0 C21.49104632 15.6038714 38.24073301 36.61707215 44 63 C44.61746094 63.00257812 45.23492187 63.00515625 45.87109375 63.0078125 C54.56336372 63.4047198 59.6888523 66.76243336 65.8125 72.75 C71.20021017 80.75459797 73.23708594 88.35838173 72 98 C69.92418804 106.49977441 65.03029856 113.6058 57.6875 118.4375 C53.4046516 120.65714974 48.74593393 120.80901674 44 121 C43.83177734 121.86044922 43.83177734 121.86044922 43.66015625 122.73828125 C37.5296088 149.14371112 19.43662099 172.2970492 -3.11572266 186.83886719 C-19.58220095 196.9858704 -39.4739524 204 -59 204 C-58.95359375 205.24136719 -58.9071875 206.48273438 -58.859375 207.76171875 C-58.82184579 209.40362171 -58.78544686 211.04555077 -58.75 212.6875 C-58.69972656 213.91243164 -58.69972656 213.91243164 -58.6484375 215.16210938 C-58.58137984 219.30292007 -58.64153226 221.4274885 -60.890625 225.01953125 C-63.93863987 227.88127855 -66.25653148 228.53652563 -70.47216797 228.47753906 C-75.58298986 227.51204093 -79.92119561 224.57921866 -84.32739258 221.92089844 C-86.05212465 220.88125412 -87.79050448 219.8685517 -89.53320312 218.859375 C-105.13318508 209.65637813 -105.13318508 209.65637813 -108 203 C-108.69840203 198.53347539 -108.42463246 194.94157633 -106.5625 190.8125 C-100.5059411 184.16505731 -91.82151522 180.06591829 -84.0625 175.6875 C-83.11826172 175.15060547 -82.17402344 174.61371094 -81.20117188 174.06054688 C-71.3397079 168.46273662 -71.3397079 168.46273662 -65 169 C-62.24670979 170.79562405 -60.47372539 172.05254922 -59 175 C-58.91691362 176.37548156 -58.89263984 177.75485796 -58.90234375 179.1328125 C-58.90556641 179.93847656 -58.90878906 180.74414062 -58.91210938 181.57421875 C-58.92467773 182.83685547 -58.92467773 182.83685547 -58.9375 184.125 C-58.94201172 184.97449219 -58.94652344 185.82398438 -58.95117188 186.69921875 C-58.96297126 188.79950909 -58.98090694 190.8997633 -59 193 C-35.50321726 189.38061173 -15.05371297 183.16403287 3 167 C4.33998047 165.80117188 4.33998047 165.80117188 5.70703125 164.578125 C17.65114741 153.28550609 24.98098211 140.15014162 31 125 C31.391875 124.02289063 31.78375 123.04578125 32.1875 122.0390625 C32.5896875 121.02972656 32.5896875 121.02972656 33 120 C32.175 119.814375 31.35 119.62875 30.5 119.4375 C22.4056237 116.11302402 17.4110647 109.9201116 14 102 C11.52436416 94.2080949 12.31216044 85.67856058 15.671875 78.3203125 C19.4524992 71.71533964 24.13544338 67.23037959 31 64 C31.66 64 32.32 64 33 64 C26.55003604 47.51480601 19.4796704 33.80024909 7 21 C6.36964844 20.33097656 5.73929687 19.66195312 5.08984375 18.97265625 C1.65472724 15.40164503 -1.76832842 12.58028755 -6 10 C-4.6302836 6.00499382 -2.74277578 3.19990508 0 0 Z M26.12890625 82.31640625 C23.15973841 86.74447316 23.57627059 91.89126244 24 97 C26.06300156 103.31035772 30.80864276 107.24475352 36.5 110.375 C42.39018146 111.84754536 46.8220442 111.19642445 52.0703125 108.34765625 C55.86276887 105.69907842 58.93125923 102.13748155 61 98 C61.50239048 92.49841245 61.76205731 87.61204431 59.375 82.5625 C54.46872461 77.26888707 50.08273085 73.46219594 42.6875 72.625 C35.32175931 73.37405838 30.74242592 76.67207292 26.12890625 82.31640625 Z M-81.61108398 186.5612793 C-82.90951712 187.310644 -84.21227857 188.05255963 -85.51928711 188.78686523 C-87.39990606 189.84422321 -89.2651524 190.92497315 -91.12890625 192.01171875 C-92.81608765 192.97791138 -92.81608765 192.97791138 -94.53735352 193.96362305 C-97.20531631 195.76353121 -97.20531631 195.76353121 -97.65454102 198.54760742 C-97.2052121 201.13358711 -97.2052121 201.13358711 -95.07568359 202.71337891 C-94.19219238 203.21272949 -93.30870117 203.71208008 -92.3984375 204.2265625 C-91.43292969 204.7834375 -90.46742188 205.3403125 -89.47265625 205.9140625 C-88.45042969 206.47867188 -87.42820313 207.04328125 -86.375 207.625 C-85.37597656 208.19734375 -84.37695312 208.7696875 -83.34765625 209.359375 C-78.61987675 212.05201763 -73.87072489 214.56463756 -69 217 C-69 204.79 -69 192.58 -69 180 C-72.89940154 180 -78.14546562 184.54922573 -81.61108398 186.5612793 Z " fill="#883CFF" transform="translate(219,63)"/>
<path d="M0 0 C10.76826418 8.87334121 17.78905807 22.34636518 19.43359375 36.15234375 C20.69185778 52.22280366 15.95654245 66.58167695 5.68359375 79.02734375 C-4.85566722 90.13739642 -19.25869691 95.8947375 -34.37890625 96.46484375 C-49.25669401 96.04110929 -62.74477992 90.65217093 -73.5703125 80.3828125 C-83.9417856 68.79355391 -89.16450772 54.74764083 -88.80859375 39.28515625 C-87.6804664 24.69228316 -81.56747914 10.99743701 -70.56640625 1.15234375 C-48.56737464 -15.24100869 -22.6233858 -16.2874604 0 0 Z M-69.55078125 16.35546875 C-76.74911084 26.34384857 -78.45787548 37.13634296 -77.56640625 49.15234375 C-74.91868055 61.81603755 -68.01892076 71.61952603 -57.56640625 79.15234375 C-45.95085089 85.16038963 -34.03600838 87.48175532 -21.25390625 83.52734375 C-10.48014123 79.4121656 -1.30447419 72.37927509 4.07421875 61.98046875 C9.17696078 49.95676626 10.45303931 38.3812047 5.68359375 25.89453125 C0.20818108 13.88284471 -8.56575094 5.71459801 -20.90234375 1.02734375 C-39.61879632 -5.11999551 -57.09219255 1.98017409 -69.55078125 16.35546875 Z " fill="#6F47FF" transform="translate(189.56640625,112.84765625)"/>
<path d="M0 0 C4.74054332 4.4771798 6.08502676 8.60915808 6.5 14.9375 C6.4061114 21.25150816 3.74659906 26.7467325 -0.75 31.125 C-6.38192322 34.53086661 -11.21967327 35.86229495 -17.75 35.125 C-24.58412552 32.80834728 -29.48003097 29.66493806 -32.75 23.125 C-34.72053685 17.92994831 -34.23940522 12.56874541 -32.5 7.4375 C-29.41116789 1.59078208 -26.21468123 -2.18150022 -19.9375 -4.5625 C-12.02969344 -5.69218665 -6.68445522 -4.5575831 0 0 Z " fill="#A9B9FF" transform="translate(168.75,139.875)"/>
</svg>
