<?xml version="1.0" encoding="UTF-8"?>
<svg xmlns="http://www.w3.org/2000/svg" xmlns:xlink="http://www.w3.org/1999/xlink" width="62px" height="64px" viewBox="0 0 62 63" version="1.1">
<g id="surface1">
<path style=" stroke:none;fill-rule:nonzero;fill:rgb(100%,17.647059%,12.54902%);fill-opacity:1;" d="M 61.855469 14.371094 C 61.878906 14.457031 61.890625 14.542969 61.890625 14.628906 L 61.890625 28.070312 C 61.890625 28.421875 61.699219 28.746094 61.386719 28.917969 L 49.910156 35.417969 L 49.910156 48.289062 C 49.910156 48.636719 49.722656 48.960938 49.414062 49.140625 L 25.449219 62.695312 C 25.398438 62.726562 25.335938 62.742188 25.277344 62.765625 C 25.253906 62.773438 25.234375 62.789062 25.210938 62.792969 C 25.042969 62.835938 24.867188 62.835938 24.699219 62.792969 C 24.671875 62.785156 24.648438 62.769531 24.621094 62.761719 C 24.566406 62.742188 24.507812 62.722656 24.457031 62.695312 L 0.5 49.140625 C 0.191406 48.960938 0 48.640625 0 48.289062 L 0 7.96875 C 0 7.878906 0.015625 7.792969 0.0351562 7.710938 C 0.0429688 7.679688 0.0585938 7.65625 0.0703125 7.628906 C 0.0898438 7.578125 0.105469 7.523438 0.136719 7.476562 C 0.152344 7.445312 0.179688 7.417969 0.199219 7.390625 C 0.230469 7.347656 0.257812 7.3125 0.289062 7.273438 C 0.316406 7.246094 0.355469 7.226562 0.386719 7.203125 C 0.425781 7.171875 0.457031 7.140625 0.5 7.117188 L 12.480469 0.339844 C 12.789062 0.164062 13.167969 0.164062 13.476562 0.339844 L 25.453125 7.117188 L 25.457031 7.117188 C 25.496094 7.140625 25.53125 7.171875 25.566406 7.203125 C 25.597656 7.226562 25.632812 7.246094 25.660156 7.273438 C 25.695312 7.3125 25.722656 7.347656 25.75 7.390625 C 25.773438 7.417969 25.804688 7.445312 25.820312 7.476562 C 25.847656 7.527344 25.867188 7.578125 25.882812 7.628906 C 25.894531 7.65625 25.910156 7.679688 25.921875 7.710938 C 25.941406 7.796875 25.957031 7.882812 25.957031 7.96875 L 25.957031 33.152344 L 35.9375 27.503906 L 35.9375 14.628906 C 35.9375 14.542969 35.949219 14.453125 35.972656 14.371094 C 35.980469 14.34375 35.996094 14.316406 36.007812 14.289062 C 36.023438 14.238281 36.042969 14.1875 36.070312 14.140625 C 36.089844 14.105469 36.117188 14.082031 36.136719 14.050781 C 36.167969 14.015625 36.191406 13.972656 36.226562 13.9375 C 36.253906 13.910156 36.292969 13.886719 36.324219 13.863281 C 36.363281 13.835938 36.394531 13.800781 36.433594 13.78125 L 48.414062 7.003906 C 48.726562 6.824219 49.101562 6.824219 49.414062 7.003906 L 61.390625 13.78125 C 61.433594 13.804688 61.464844 13.835938 61.5 13.863281 C 61.53125 13.886719 61.570312 13.910156 61.597656 13.933594 C 61.632812 13.972656 61.65625 14.015625 61.6875 14.050781 C 61.710938 14.082031 61.738281 14.105469 61.753906 14.140625 C 61.785156 14.1875 61.800781 14.238281 61.820312 14.289062 C 61.832031 14.316406 61.847656 14.34375 61.855469 14.371094 Z M 59.894531 27.503906 L 59.894531 16.328125 L 55.699219 18.699219 L 49.910156 21.972656 L 49.910156 33.152344 Z M 47.914062 47.722656 L 47.914062 36.539062 L 42.21875 39.734375 L 25.953125 48.859375 L 25.953125 60.148438 Z M 1.996094 9.664062 L 1.996094 47.722656 L 23.957031 60.144531 L 23.957031 48.859375 L 12.484375 42.476562 L 12.476562 42.476562 C 12.4375 42.453125 12.402344 42.421875 12.367188 42.394531 C 12.335938 42.367188 12.300781 42.347656 12.273438 42.320312 L 12.273438 42.316406 C 12.238281 42.289062 12.214844 42.25 12.1875 42.214844 C 12.164062 42.179688 12.132812 42.152344 12.113281 42.121094 L 12.113281 42.117188 C 12.089844 42.078125 12.078125 42.035156 12.0625 41.992188 C 12.042969 41.957031 12.023438 41.921875 12.011719 41.882812 C 12.003906 41.835938 12 41.789062 11.992188 41.742188 C 11.988281 41.703125 11.976562 41.664062 11.976562 41.628906 L 11.976562 15.3125 L 6.191406 12.035156 Z M 12.976562 2.320312 L 2.996094 7.96875 L 12.972656 13.613281 L 22.953125 7.96875 L 12.972656 2.320312 Z M 18.167969 37.554688 L 23.957031 34.28125 L 23.957031 9.664062 L 19.765625 12.035156 L 13.972656 15.3125 L 13.972656 39.929688 Z M 48.914062 8.984375 L 38.933594 14.628906 L 48.914062 20.277344 L 58.890625 14.628906 Z M 47.914062 21.972656 L 42.125 18.699219 L 37.933594 16.328125 L 37.933594 27.503906 L 43.722656 30.777344 L 47.914062 33.152344 Z M 24.953125 47.160156 L 39.589844 38.953125 L 46.90625 34.847656 L 36.933594 29.203125 L 25.453125 35.699219 L 14.992188 41.621094 Z M 24.953125 47.160156 "/>
</g>
</svg>
