<?xml version="1.0" encoding="UTF-8"?>
<svg xmlns="http://www.w3.org/2000/svg" xmlns:xlink="http://www.w3.org/1999/xlink" width="60px" height="60px" viewBox="0 0 60 60" version="1.1">
<g id="surface1">
<path style=" stroke:none;fill-rule:nonzero;fill:rgb(6.27451%,36.862745%,52.54902%);fill-opacity:1;" d="M 16.328125 48.886719 C 15.964844 48.886719 15.640625 48.863281 15.363281 48.820312 L 15.363281 50.03125 C 15.929688 50.257812 16.398438 50.371094 16.78125 50.371094 C 18.210938 50.371094 19.53125 49.496094 20.738281 47.738281 C 22.277344 45.460938 23.523438 41.808594 24.46875 36.789062 L 22.265625 36.789062 C 21.914062 39.710938 21.214844 42.582031 20.179688 45.335938 C 20.25 44.816406 20.078125 43.898438 19.667969 42.582031 L 17.851562 36.789062 L 15.574219 36.789062 L 18.109375 44.539062 C 18.492188 45.699219 18.683594 46.476562 18.683594 46.855469 C 18.683594 47.402344 18.441406 47.898438 17.949219 48.339844 C 17.539062 48.699219 17 48.886719 16.328125 48.886719 Z M 16.328125 48.886719 "/>
<path style=" stroke:none;fill-rule:nonzero;fill:rgb(87.058824%,54.117647%,1.176471%);fill-opacity:1;" d="M 48.703125 33.234375 L 48.703125 46.804688 L 55.28125 46.804688 L 55.28125 45.136719 L 50.917969 45.136719 L 50.917969 33.234375 Z M 48.703125 33.234375 "/>
<path style=" stroke:none;fill-rule:nonzero;fill:rgb(6.27451%,36.862745%,52.54902%);fill-opacity:1;" d="M 2.601562 35.980469 L 2.625 35.980469 L 6.125 46.804688 L 7.886719 46.804688 L 11.414062 35.980469 L 11.433594 35.980469 C 11.816406 39.578125 12.042969 43.1875 12.109375 46.804688 L 14.433594 46.804688 C 14.289062 42.265625 13.933594 37.738281 13.363281 33.234375 L 10.625 33.234375 L 7.257812 43.207031 L 7.238281 43.207031 L 3.898438 33.234375 L 1.023438 33.234375 C 0.457031 37.738281 0.117188 42.265625 0 46.804688 L 2.113281 46.804688 C 2.179688 42.835938 2.34375 39.226562 2.601562 35.980469 Z M 2.601562 35.980469 "/>
<path style=" stroke:none;fill-rule:nonzero;fill:rgb(87.058824%,54.117647%,1.176471%);fill-opacity:1;" d="M 46.699219 39.765625 C 46.699219 35.273438 44.902344 33.023438 41.308594 33.023438 C 39.550781 33.023438 38.175781 33.59375 37.183594 34.734375 C 36.109375 35.984375 35.570312 37.816406 35.570312 40.246094 C 35.570312 42.628906 36.046875 44.382812 37.003906 45.496094 C 37.878906 46.503906 39.199219 47.007812 40.960938 47.007812 C 41.621094 47.007812 42.226562 46.925781 42.773438 46.765625 L 46.085938 48.664062 L 46.988281 47.136719 L 46.980469 47.136719 L 44.441406 45.910156 C 44.664062 45.722656 44.882812 45.523438 45.078125 45.296875 C 46.160156 44.050781 46.699219 42.207031 46.699219 39.765625 Z M 41.191406 45.328125 C 40.078125 45.328125 39.265625 44.917969 38.746094 44.101562 L 38.75 44.085938 C 38.1875 43.203125 37.90625 41.78125 37.90625 39.828125 C 37.90625 36.40625 38.96875 34.699219 41.082031 34.699219 C 42.191406 34.699219 43.007812 35.109375 43.523438 35.925781 C 44.085938 36.8125 44.363281 38.222656 44.363281 40.15625 C 44.363281 43.601562 43.304688 45.328125 41.191406 45.328125 Z M 33 40.183594 C 33 40.183594 31.015625 39.066406 30.03125 38.539062 C 28.953125 37.949219 28.367188 37.257812 28.367188 36.453125 C 28.371094 35.953125 28.597656 35.484375 28.988281 35.167969 C 29.367188 34.828125 29.914062 34.664062 30.621094 34.664062 C 31.496094 34.664062 32.382812 34.851562 33.28125 35.226562 L 33.816406 34.058594 C 32.769531 33.390625 31.554688 33.042969 30.316406 33.054688 C 29.066406 33.054688 28.050781 33.390625 27.265625 34.074219 C 26.484375 34.746094 26.089844 35.628906 26.089844 36.734375 C 26.089844 38.0625 26.613281 38.871094 27.671875 39.625 C 27.671875 39.625 29.609375 40.714844 30.578125 41.238281 C 31.621094 41.816406 32.199219 42.503906 32.199219 43.3125 C 32.207031 43.90625 31.925781 44.46875 31.449219 44.824219 C 30.972656 45.183594 30.320312 45.363281 29.488281 45.363281 C 28.597656 45.363281 27.609375 45.097656 26.515625 44.558594 L 25.921875 45.726562 C 27.195312 46.566406 28.496094 46.988281 29.855469 46.988281 C 31.308594 46.988281 32.453125 46.621094 33.316406 45.886719 C 34.175781 45.148438 34.605469 44.203125 34.605469 43.046875 L 34.621094 43.054688 C 34.621094 41.734375 34.082031 40.933594 33 40.183594 Z M 33 40.183594 "/>
<path style=" stroke:none;fill-rule:nonzero;fill:rgb(6.27451%,36.862745%,52.54902%);fill-opacity:1;" d="M 41.011719 14.421875 C 40.726562 14.421875 40.53125 14.453125 40.328125 14.5 L 40.328125 14.53125 L 40.363281 14.53125 C 40.496094 14.789062 40.726562 14.976562 40.898438 15.203125 C 41.03125 15.464844 41.148438 15.726562 41.28125 15.988281 L 41.316406 15.949219 C 41.550781 15.789062 41.667969 15.527344 41.667969 15.132812 C 41.566406 15.015625 41.550781 14.902344 41.46875 14.789062 C 41.367188 14.625 41.152344 14.546875 41.015625 14.414062 Z M 41.011719 14.421875 "/>
<path style=" stroke:none;fill-rule:nonzero;fill:rgb(6.27451%,36.862745%,52.54902%);fill-opacity:1;" d="M 59.238281 33 C 58.746094 32.363281 58.160156 31.804688 57.5 31.34375 C 56.964844 30.984375 55.796875 30.484375 55.574219 29.882812 L 55.542969 29.847656 C 55.90625 29.816406 56.34375 29.683594 56.691406 29.585938 C 57.261719 29.441406 57.78125 29.472656 58.367188 29.328125 C 58.632812 29.261719 58.898438 29.179688 59.167969 29.097656 L 59.167969 28.949219 C 58.867188 28.65625 58.640625 28.253906 58.332031 27.980469 C 57.464844 27.238281 56.542969 26.5625 55.574219 25.960938 C 55.046875 25.628906 54.382812 25.421875 53.828125 25.140625 C 53.628906 25.042969 53.296875 24.992188 53.179688 24.828125 C 52.878906 24.46875 52.703125 23.992188 52.492188 23.566406 C 52.011719 22.664062 51.542969 21.664062 51.125 20.710938 C 50.824219 20.066406 50.640625 19.425781 50.273438 18.835938 C 48.550781 16.046875 46.683594 14.355469 43.808594 12.703125 C 43.191406 12.359375 42.453125 12.210938 41.671875 12.03125 C 41.253906 12.011719 40.835938 11.980469 40.421875 11.960938 C 40.144531 11.847656 39.878906 11.535156 39.644531 11.386719 C 38.695312 10.796875 36.234375 9.519531 35.535156 11.207031 C 35.085938 12.273438 36.203125 13.324219 36.589844 13.863281 C 36.878906 14.238281 37.238281 14.667969 37.441406 15.089844 C 37.558594 15.375 37.589844 15.667969 37.707031 15.964844 C 37.972656 16.6875 38.226562 17.488281 38.574219 18.167969 C 38.757812 18.511719 38.957031 18.871094 39.191406 19.179688 C 39.328125 19.359375 39.558594 19.441406 39.609375 19.738281 C 39.375 20.074219 39.359375 20.558594 39.226562 20.964844 C 38.625 22.824219 38.859375 25.121094 39.710938 26.488281 C 39.976562 26.894531 40.613281 27.796875 41.46875 27.453125 C 42.21875 27.15625 42.050781 26.226562 42.265625 25.402344 C 42.316406 25.203125 42.285156 25.074219 42.386719 24.941406 L 42.386719 24.980469 C 42.621094 25.441406 42.859375 25.878906 43.074219 26.34375 C 43.585938 27.148438 44.488281 27.984375 45.238281 28.539062 C 45.640625 28.835938 45.957031 29.34375 46.457031 29.527344 L 46.457031 29.476562 L 46.421875 29.476562 C 46.3125 29.335938 46.171875 29.265625 46.035156 29.148438 C 45.71875 28.847656 45.425781 28.515625 45.160156 28.167969 C 44.457031 27.222656 43.832031 26.222656 43.292969 25.175781 C 43.015625 24.664062 42.789062 24.109375 42.566406 23.601562 C 42.46875 23.40625 42.46875 23.109375 42.300781 23.011719 C 42.050781 23.367188 41.683594 23.679688 41.5 24.121094 C 41.183594 24.828125 41.148438 25.699219 41.03125 26.601562 C 40.960938 26.621094 40.996094 26.601562 40.960938 26.636719 C 40.425781 26.511719 40.246094 25.964844 40.046875 25.507812 C 39.546875 24.34375 39.460938 22.46875 39.894531 21.125 C 40.011719 20.78125 40.511719 19.699219 40.3125 19.367188 C 40.207031 19.054688 39.878906 18.878906 39.695312 18.625 C 39.460938 18.296875 39.261719 17.945312 39.09375 17.578125 C 38.695312 16.660156 38.496094 15.640625 38.058594 14.726562 C 37.859375 14.300781 37.511719 13.855469 37.226562 13.464844 C 36.90625 13.023438 36.558594 12.710938 36.304688 12.1875 C 36.222656 12.007812 36.105469 11.710938 36.238281 11.515625 C 36.273438 11.382812 36.34375 11.328125 36.472656 11.296875 C 36.691406 11.117188 37.308594 11.351562 37.527344 11.449219 C 38.144531 11.691406 38.664062 11.921875 39.183594 12.265625 C 39.417969 12.429688 39.671875 12.738281 39.96875 12.824219 L 40.320312 12.824219 C 40.855469 12.9375 41.457031 12.859375 41.957031 13.003906 C 42.84375 13.28125 43.644531 13.691406 44.363281 14.132812 C 46.566406 15.507812 48.363281 17.445312 49.574219 19.742188 C 49.773438 20.121094 49.863281 20.46875 50.046875 20.859375 C 50.394531 21.671875 50.828125 22.488281 51.183594 23.269531 C 51.53125 24.042969 51.871094 24.832031 52.371094 25.472656 C 52.621094 25.816406 53.628906 25.996094 54.078125 26.175781 C 54.410156 26.324219 54.925781 26.457031 55.226562 26.636719 C 55.800781 26.980469 56.363281 27.375 56.902344 27.753906 C 57.175781 27.941406 58.011719 28.351562 58.058594 28.679688 C 56.722656 28.644531 55.683594 28.777344 54.816406 29.140625 C 54.566406 29.238281 54.167969 29.238281 54.132812 29.550781 C 54.269531 29.683594 54.289062 29.894531 54.40625 30.078125 C 54.609375 30.40625 54.953125 30.84375 55.273438 31.078125 C 55.621094 31.347656 55.972656 31.609375 56.339844 31.835938 C 56.988281 32.230469 57.726562 32.460938 58.363281 32.859375 C 58.726562 33.085938 59.097656 33.378906 59.464844 33.625 C 59.648438 33.746094 59.765625 33.96875 60 34.046875 L 60 34 C 59.886719 33.851562 59.851562 33.640625 59.738281 33.476562 C 59.570312 33.308594 59.402344 33.164062 59.238281 33 Z M 59.238281 33 "/>
</g>
</svg>
