<?xml version="1.0" encoding="UTF-8"?>
<svg xmlns="http://www.w3.org/2000/svg" xmlns:xlink="http://www.w3.org/1999/xlink" width="64px" height="64px" viewBox="0 0 64 64" version="1.1">
<g id="surface1">
<path style=" stroke:none;fill-rule:nonzero;fill:rgb(51.372549%,80.392157%,16.078431%);fill-opacity:1;" d="M 58.882812 29.390625 C 58.726562 29.390625 58.574219 29.421875 58.441406 29.496094 L 54.203125 31.941406 C 53.929688 32.101562 53.765625 32.398438 53.765625 32.714844 L 53.765625 37.601562 C 53.765625 37.917969 53.929688 38.214844 54.203125 38.375 L 55.3125 39.011719 C 55.847656 39.277344 56.046875 39.273438 56.292969 39.273438 C 57.085938 39.273438 57.542969 38.789062 57.542969 37.949219 L 57.542969 33.128906 C 57.542969 33.0625 57.480469 33.011719 57.414062 33.011719 L 56.882812 33.011719 C 56.816406 33.011719 56.757812 33.0625 56.757812 33.128906 L 56.757812 37.949219 C 56.757812 38.324219 56.371094 38.695312 55.742188 38.382812 L 54.589844 37.707031 C 54.550781 37.6875 54.519531 37.648438 54.519531 37.601562 L 54.519531 32.714844 C 54.519531 32.671875 54.550781 32.625 54.589844 32.601562 L 58.820312 30.164062 C 58.855469 30.140625 58.90625 30.140625 58.945312 30.164062 L 63.171875 32.601562 C 63.210938 32.625 63.242188 32.667969 63.242188 32.714844 L 63.242188 37.601562 C 63.242188 37.648438 63.21875 37.695312 63.179688 37.71875 L 58.945312 40.15625 C 58.90625 40.175781 58.859375 40.175781 58.820312 40.15625 L 57.730469 39.507812 C 57.695312 39.488281 57.65625 39.488281 57.621094 39.507812 C 57.320312 39.675781 57.265625 39.695312 56.984375 39.792969 C 56.914062 39.820312 56.808594 39.855469 57.019531 39.976562 L 58.441406 40.8125 C 58.574219 40.886719 58.726562 40.929688 58.882812 40.929688 C 59.035156 40.929688 59.1875 40.886719 59.320312 40.8125 L 63.558594 38.375 C 63.832031 38.214844 64 37.917969 64 37.601562 L 64 32.714844 C 64 32.398438 63.832031 32.101562 63.558594 31.941406 L 59.320312 29.496094 C 59.1875 29.421875 59.035156 29.390625 58.882812 29.390625 Z M 58.882812 29.390625 "/>
<path style=" stroke:none;fill-rule:nonzero;fill:rgb(51.372549%,80.392157%,16.078431%);fill-opacity:1;" d="M 60.015625 32.878906 C 58.808594 32.878906 58.089844 33.390625 58.089844 34.246094 C 58.089844 35.171875 58.804688 35.425781 59.960938 35.539062 C 61.34375 35.675781 61.453125 35.878906 61.453125 36.152344 C 61.453125 36.625 61.078125 36.828125 60.183594 36.828125 C 59.066406 36.828125 58.820312 36.546875 58.738281 35.992188 C 58.726562 35.929688 58.679688 35.882812 58.621094 35.882812 L 58.070312 35.882812 C 58.003906 35.882812 57.945312 35.941406 57.945312 36.007812 C 57.945312 36.722656 58.332031 37.5625 60.183594 37.5625 C 61.527344 37.5625 62.300781 37.039062 62.300781 36.117188 C 62.300781 35.203125 61.675781 34.957031 60.375 34.785156 C 59.058594 34.613281 58.933594 34.527344 58.933594 34.21875 C 58.933594 33.964844 59.042969 33.625 60.015625 33.625 C 60.882812 33.625 61.203125 33.8125 61.335938 34.398438 C 61.347656 34.453125 61.398438 34.496094 61.453125 34.496094 L 62.003906 34.496094 C 62.035156 34.496094 62.070312 34.476562 62.09375 34.453125 C 62.113281 34.425781 62.132812 34.398438 62.128906 34.363281 C 62.042969 33.351562 61.371094 32.878906 60.015625 32.878906 Z M 60.015625 32.878906 "/>
<path style=" stroke:none;fill-rule:nonzero;fill:rgb(25.098039%,25.490196%,21.568627%);fill-opacity:1;" d="M 33.976562 22.984375 C 33.929688 22.984375 33.882812 22.996094 33.84375 23.019531 C 33.757812 23.070312 33.707031 23.160156 33.707031 23.253906 L 33.707031 30.136719 C 33.707031 30.203125 33.675781 30.261719 33.617188 30.296875 C 33.558594 30.332031 33.488281 30.332031 33.429688 30.296875 L 32.304688 29.648438 C 32.136719 29.554688 31.933594 29.554688 31.765625 29.648438 L 27.277344 32.238281 C 27.109375 32.335938 27.007812 32.523438 27.007812 32.714844 L 27.007812 37.898438 C 27.007812 38.089844 27.109375 38.269531 27.277344 38.363281 L 31.765625 40.953125 C 31.933594 41.050781 32.136719 41.050781 32.304688 40.953125 L 36.792969 38.363281 C 36.960938 38.269531 37.0625 38.089844 37.0625 37.898438 L 37.0625 24.980469 C 37.0625 24.785156 36.957031 24.601562 36.785156 24.503906 L 34.113281 23.011719 C 34.070312 22.988281 34.023438 22.984375 33.976562 22.984375 Z M 5.109375 29.453125 C 5.023438 29.457031 4.941406 29.46875 4.863281 29.515625 L 0.375 32.105469 C 0.210938 32.199219 0.105469 32.378906 0.105469 32.574219 L 0.117188 39.523438 C 0.117188 39.621094 0.164062 39.710938 0.25 39.757812 C 0.335938 39.808594 0.4375 39.808594 0.519531 39.757812 L 3.183594 38.230469 C 3.351562 38.128906 3.460938 37.957031 3.460938 37.761719 L 3.460938 34.515625 C 3.460938 34.320312 3.5625 34.144531 3.730469 34.046875 L 4.863281 33.390625 C 4.945312 33.34375 5.039062 33.320312 5.132812 33.320312 C 5.226562 33.320312 5.320312 33.34375 5.40625 33.390625 L 6.539062 34.046875 C 6.707031 34.144531 6.808594 34.324219 6.808594 34.515625 L 6.808594 37.761719 C 6.808594 37.957031 6.917969 38.128906 7.085938 38.230469 L 9.75 39.757812 C 9.832031 39.808594 9.933594 39.808594 10.019531 39.757812 C 10.101562 39.710938 10.152344 39.621094 10.152344 39.523438 L 10.160156 32.574219 C 10.164062 32.378906 10.058594 32.199219 9.890625 32.105469 L 5.40625 29.515625 C 5.328125 29.46875 5.246094 29.457031 5.160156 29.453125 Z M 45.4375 29.515625 C 45.34375 29.515625 45.25 29.539062 45.164062 29.585938 L 40.679688 32.175781 C 40.511719 32.273438 40.40625 32.453125 40.40625 32.644531 L 40.40625 37.824219 C 40.40625 38.019531 40.519531 38.195312 40.6875 38.292969 L 45.140625 40.828125 C 45.304688 40.921875 45.503906 40.929688 45.667969 40.835938 L 48.367188 39.335938 C 48.453125 39.289062 48.511719 39.199219 48.511719 39.101562 C 48.511719 39.003906 48.460938 38.914062 48.375 38.867188 L 43.863281 36.277344 C 43.777344 36.230469 43.71875 36.132812 43.71875 36.035156 L 43.71875 34.417969 C 43.71875 34.320312 43.777344 34.230469 43.863281 34.183594 L 45.265625 33.371094 C 45.347656 33.324219 45.449219 33.324219 45.535156 33.371094 L 46.9375 34.183594 C 47.019531 34.230469 47.074219 34.320312 47.074219 34.417969 L 47.074219 35.695312 C 47.070312 35.789062 47.125 35.878906 47.207031 35.925781 C 47.292969 35.976562 47.394531 35.976562 47.476562 35.925781 L 50.167969 34.363281 C 50.332031 34.265625 50.4375 34.085938 50.4375 33.894531 L 50.4375 32.644531 C 50.4375 32.453125 50.332031 32.273438 50.167969 32.175781 L 45.707031 29.585938 C 45.625 29.539062 45.53125 29.515625 45.4375 29.515625 Z M 32.015625 33.382812 C 32.039062 33.382812 32.066406 33.386719 32.089844 33.398438 L 33.625 34.289062 C 33.667969 34.316406 33.699219 34.359375 33.699219 34.40625 L 33.699219 36.1875 C 33.699219 36.238281 33.667969 36.28125 33.625 36.304688 L 32.089844 37.195312 C 32.046875 37.21875 31.996094 37.21875 31.953125 37.195312 L 30.417969 36.304688 C 30.375 36.28125 30.34375 36.238281 30.34375 36.1875 L 30.34375 34.40625 C 30.34375 34.359375 30.375 34.316406 30.417969 34.289062 L 31.953125 33.398438 C 31.972656 33.386719 31.996094 33.382812 32.015625 33.382812 Z M 32.015625 33.382812 "/>
<path style=" stroke:none;fill-rule:nonzero;fill:rgb(51.372549%,80.392157%,16.078431%);fill-opacity:1;" d="M 18.589844 29.488281 C 18.496094 29.488281 18.402344 29.511719 18.320312 29.558594 L 13.832031 32.140625 C 13.664062 32.238281 13.5625 32.425781 13.5625 32.617188 L 13.5625 37.796875 C 13.5625 37.992188 13.664062 38.167969 13.832031 38.265625 L 18.320312 40.855469 C 18.484375 40.953125 18.691406 40.953125 18.859375 40.855469 L 23.347656 38.265625 C 23.515625 38.167969 23.617188 37.992188 23.617188 37.796875 L 23.617188 32.617188 C 23.617188 32.425781 23.515625 32.238281 23.347656 32.140625 L 18.859375 29.558594 C 18.777344 29.511719 18.683594 29.488281 18.589844 29.488281 Z M 45.425781 34.109375 C 45.410156 34.109375 45.390625 34.109375 45.371094 34.121094 L 44.507812 34.625 C 44.476562 34.640625 44.457031 34.675781 44.457031 34.714844 L 44.457031 35.703125 C 44.457031 35.738281 44.476562 35.773438 44.507812 35.792969 L 45.371094 36.289062 C 45.40625 36.304688 45.441406 36.304688 45.472656 36.289062 L 46.335938 35.792969 C 46.367188 35.773438 46.386719 35.738281 46.390625 35.703125 L 46.390625 34.714844 C 46.386719 34.675781 46.367188 34.640625 46.335938 34.625 L 45.472656 34.121094 C 45.457031 34.109375 45.445312 34.109375 45.425781 34.109375 Z M 45.425781 34.109375 "/>
</g>
</svg>
