<?xml version="1.0" encoding="UTF-8"?>
<svg xmlns="http://www.w3.org/2000/svg" xmlns:xlink="http://www.w3.org/1999/xlink" width="70px" height="70px" viewBox="0 0 70 70" version="1.1">
<g id="surface1">
<path style=" stroke:none;fill-rule:nonzero;fill:rgb(0.784314%,0.784314%,0.784314%);fill-opacity:1;" d="M 33.304688 0 C 34.269531 -0.00390625 35.230469 0.00390625 36.195312 0.0234375 C 36.355469 0.0234375 36.515625 0.0273438 36.679688 0.03125 C 37.570312 0.0429688 38.460938 0.0703125 39.351562 0.136719 C 39.425781 0.144531 39.5 0.148438 39.578125 0.15625 C 45.320312 0.625 51.292969 3.242188 55.855469 6.699219 C 55.957031 6.777344 56.058594 6.851562 56.160156 6.929688 C 57.003906 7.5625 57.8125 8.230469 58.589844 8.945312 C 58.742188 9.082031 58.890625 9.214844 59.046875 9.347656 C 59.394531 9.648438 59.71875 9.972656 60.042969 10.300781 C 60.148438 10.402344 60.25 10.503906 60.355469 10.609375 C 60.726562 10.980469 61.085938 11.359375 61.429688 11.761719 C 61.496094 11.839844 61.5625 11.917969 61.632812 11.992188 C 62.1875 12.628906 62.707031 13.292969 63.214844 13.972656 C 63.253906 14.023438 63.292969 14.078125 63.332031 14.132812 C 64.167969 15.257812 64.921875 16.421875 65.613281 17.640625 C 65.679688 17.761719 65.75 17.882812 65.816406 18 C 68.398438 22.507812 70.011719 27.773438 70.011719 32.964844 C 70.011719 33.136719 70.011719 33.304688 70.011719 33.472656 C 70.011719 33.828125 70.011719 34.179688 70.011719 34.535156 C 70.011719 34.984375 70.015625 35.433594 70.015625 35.882812 C 70.015625 36.230469 70.015625 36.578125 70.015625 36.929688 C 70.015625 37.09375 70.015625 37.261719 70.015625 37.425781 C 70.023438 38.855469 69.941406 40.246094 69.636719 41.648438 C 69.628906 41.699219 69.617188 41.75 69.605469 41.800781 C 68.375 47.601562 65.816406 53.042969 62 57.597656 C 61.96875 57.632812 61.9375 57.671875 61.90625 57.710938 C 60.902344 58.90625 59.835938 60.105469 58.640625 61.113281 C 58.46875 61.261719 58.300781 61.414062 58.132812 61.570312 C 57.722656 61.945312 57.289062 62.289062 56.84375 62.628906 C 56.71875 62.726562 56.589844 62.824219 56.464844 62.921875 C 55.035156 64.023438 53.503906 64.992188 51.929688 65.867188 C 51.867188 65.898438 51.804688 65.933594 51.738281 65.96875 C 48.597656 67.699219 45.023438 68.96875 41.5 69.632812 C 41.429688 69.648438 41.355469 69.660156 41.285156 69.675781 C 39.886719 69.921875 38.476562 69.957031 37.058594 69.976562 C 36.964844 69.980469 36.871094 69.980469 36.777344 69.980469 C 31.035156 70.066406 25.773438 69.488281 20.5 67.078125 C 20.425781 67.042969 20.351562 67.007812 20.273438 66.972656 C 17.894531 65.875 15.648438 64.546875 13.570312 62.941406 C 13.53125 62.914062 13.492188 62.882812 13.449219 62.851562 C 12.898438 62.425781 12.371094 61.988281 11.855469 61.515625 C 11.765625 61.4375 11.671875 61.355469 11.582031 61.277344 C 10.980469 60.753906 10.398438 60.210938 9.835938 59.652344 C 9.789062 59.605469 9.742188 59.558594 9.691406 59.507812 C 9.375 59.191406 9.078125 58.863281 8.785156 58.523438 C 8.710938 58.4375 8.636719 58.355469 8.5625 58.269531 C 8.042969 57.679688 7.546875 57.078125 7.070312 56.457031 C 7.042969 56.417969 7.011719 56.378906 6.980469 56.335938 C 2.882812 50.960938 -0.0117188 44.117188 -0.0117188 37.300781 C -0.0117188 37.128906 -0.0117188 36.957031 -0.0117188 36.78125 C -0.0117188 36.421875 -0.0117188 36.0625 -0.0117188 35.703125 C -0.0117188 35.246094 -0.015625 34.789062 -0.015625 34.332031 C -0.015625 33.976562 -0.015625 33.621094 -0.015625 33.265625 C -0.015625 33.097656 -0.015625 32.929688 -0.015625 32.761719 C -0.0195312 31.378906 0.0117188 29.992188 0.289062 28.632812 C 0.304688 28.558594 0.320312 28.484375 0.335938 28.40625 C 1.027344 25.082031 2.199219 21.921875 3.714844 18.890625 C 3.75 18.820312 3.785156 18.75 3.820312 18.679688 C 5.136719 16.054688 6.808594 13.738281 8.816406 11.597656 C 8.933594 11.472656 9.050781 11.34375 9.167969 11.21875 C 10.640625 9.628906 10.640625 9.628906 11.417969 8.972656 C 11.59375 8.820312 11.757812 8.664062 11.925781 8.507812 C 12.390625 8.074219 12.859375 7.664062 13.355469 7.269531 C 13.441406 7.199219 13.527344 7.132812 13.613281 7.0625 C 14.152344 6.625 14.699219 6.21875 15.285156 5.84375 C 15.386719 5.78125 15.488281 5.714844 15.589844 5.648438 C 19.546875 3.109375 23.910156 1.421875 28.5 0.425781 C 28.582031 0.410156 28.664062 0.390625 28.75 0.375 C 30.269531 0.0507812 31.757812 0.0078125 33.304688 0 Z M 29.269531 4.683594 C 29.183594 4.699219 29.097656 4.71875 29.007812 4.738281 C 26.59375 5.265625 24.253906 6.046875 22 7.058594 C 21.9375 7.085938 21.878906 7.109375 21.816406 7.140625 C 18.921875 8.429688 16.054688 10.335938 13.847656 12.625 C 13.71875 12.753906 13.585938 12.871094 13.449219 12.988281 C 13.136719 13.257812 12.855469 13.550781 12.574219 13.851562 C 12.527344 13.90625 12.476562 13.957031 12.425781 14.011719 C 12.28125 14.164062 12.140625 14.316406 12 14.46875 C 11.90625 14.570312 11.90625 14.570312 11.8125 14.671875 C 11.40625 15.109375 11.042969 15.570312 10.679688 16.042969 C 10.566406 16.1875 10.453125 16.332031 10.339844 16.476562 C 9.839844 17.121094 9.363281 17.773438 8.929688 18.460938 C 8.894531 18.511719 8.863281 18.5625 8.832031 18.617188 C 6.015625 23.09375 4.152344 28.507812 4.128906 33.839844 C 4.128906 33.914062 4.128906 33.992188 4.125 34.070312 C 4.117188 35.699219 4.113281 37.308594 4.355469 38.921875 C 4.371094 39.019531 4.386719 39.117188 4.398438 39.214844 C 5.019531 43.382812 6.546875 47.148438 8.429688 50.894531 C 8.691406 50.789062 8.847656 50.632812 9.039062 50.429688 C 12.523438 46.890625 17.902344 44.960938 22.464844 43.257812 C 22.742188 43.152344 23.015625 43.050781 23.289062 42.9375 C 23.371094 42.902344 23.453125 42.871094 23.535156 42.835938 C 23.601562 42.808594 23.667969 42.777344 23.738281 42.75 C 23.972656 42.6875 24.125 42.710938 24.355469 42.769531 C 24.527344 42.894531 24.527344 42.894531 24.691406 43.054688 C 25.027344 43.371094 25.375 43.667969 25.738281 43.957031 C 25.824219 44.027344 25.910156 44.09375 25.996094 44.164062 C 28.269531 45.996094 30.894531 47.429688 33.867188 47.519531 C 33.917969 47.519531 33.96875 47.523438 34.023438 47.523438 C 36.175781 47.609375 36.175781 47.609375 38.285156 47.261719 C 38.335938 47.246094 38.382812 47.234375 38.433594 47.21875 C 40.175781 46.703125 41.773438 45.863281 43.214844 44.765625 C 43.253906 44.734375 43.296875 44.703125 43.339844 44.671875 C 43.804688 44.316406 44.253906 43.949219 44.699219 43.570312 C 44.738281 43.539062 44.777344 43.507812 44.816406 43.472656 C 44.988281 43.328125 45.160156 43.183594 45.328125 43.035156 C 45.378906 42.988281 45.433594 42.941406 45.492188 42.894531 C 45.535156 42.855469 45.582031 42.816406 45.628906 42.773438 C 45.902344 42.644531 46.179688 42.734375 46.457031 42.824219 C 46.660156 42.898438 46.859375 42.972656 47.058594 43.050781 C 47.132812 43.078125 47.210938 43.109375 47.285156 43.136719 C 47.53125 43.230469 47.773438 43.324219 48.019531 43.421875 C 48.101562 43.453125 48.183594 43.484375 48.269531 43.519531 C 50.339844 44.316406 52.371094 45.175781 54.363281 46.160156 C 54.539062 46.246094 54.714844 46.332031 54.890625 46.417969 C 57.195312 47.53125 59.480469 48.890625 61.269531 50.742188 C 61.410156 50.914062 61.410156 50.914062 61.570312 50.894531 C 63.527344 47.066406 65.148438 43.238281 65.644531 38.921875 C 65.652344 38.847656 65.660156 38.773438 65.667969 38.699219 C 65.9375 36.210938 65.917969 33.570312 65.644531 31.078125 C 65.632812 30.996094 65.625 30.914062 65.613281 30.828125 C 65.238281 27.546875 64.214844 24.5625 62.785156 21.597656 C 62.753906 21.53125 62.722656 21.46875 62.691406 21.398438 C 61.789062 19.53125 60.671875 17.722656 59.355469 16.109375 C 59.285156 16.019531 59.210938 15.925781 59.136719 15.835938 C 58.671875 15.25 58.183594 14.691406 57.667969 14.144531 C 57.523438 13.992188 57.382812 13.832031 57.242188 13.671875 C 56.785156 13.167969 56.308594 12.6875 55.789062 12.242188 C 55.625 12.105469 55.46875 11.960938 55.3125 11.816406 C 54.910156 11.453125 54.484375 11.121094 54.050781 10.789062 C 53.9375 10.699219 53.824219 10.609375 53.710938 10.519531 C 52.679688 9.707031 51.570312 8.988281 50.429688 8.339844 C 50.375 8.308594 50.320312 8.277344 50.265625 8.246094 C 46.996094 6.382812 43.417969 5.035156 39.675781 4.539062 C 39.59375 4.53125 39.515625 4.519531 39.433594 4.507812 C 37.796875 4.3125 36.152344 4.25 34.503906 4.253906 C 34.226562 4.253906 33.949219 4.253906 33.671875 4.25 C 32.183594 4.246094 30.726562 4.367188 29.269531 4.683594 Z M 29.269531 4.683594 "/>
<path style=" stroke:none;fill-rule:nonzero;fill:rgb(0.392157%,0.392157%,0.392157%);fill-opacity:1;" d="M 34.632812 12.179688 C 38.113281 12.109375 41.410156 13.382812 44 15.683594 C 44.039062 15.714844 44.074219 15.746094 44.113281 15.78125 C 44.566406 16.175781 44.976562 16.582031 45.347656 17.058594 C 45.445312 17.179688 45.546875 17.304688 45.648438 17.421875 C 48.332031 20.503906 49.058594 24.5625 48.785156 28.511719 C 48.476562 32.421875 46.757812 36.320312 44.285156 39.347656 C 44.253906 39.386719 44.222656 39.425781 44.191406 39.464844 C 43.332031 40.515625 42.382812 41.472656 41.285156 42.269531 C 41.210938 42.328125 41.136719 42.382812 41.058594 42.4375 C 39.285156 43.703125 37.296875 44.511719 35.09375 44.503906 C 35.007812 44.503906 34.917969 44.503906 34.828125 44.5 C 34.148438 44.492188 33.515625 44.429688 32.855469 44.265625 C 32.808594 44.253906 32.761719 44.242188 32.710938 44.230469 C 29.167969 43.363281 26.253906 40.585938 24.402344 37.546875 C 23.972656 36.835938 23.570312 36.113281 23.214844 35.363281 C 23.164062 35.261719 23.117188 35.160156 23.066406 35.058594 C 22.246094 33.375 21.691406 31.570312 21.355469 29.726562 C 21.34375 29.65625 21.332031 29.585938 21.320312 29.515625 C 20.648438 25.605469 21.449219 21.445312 23.738281 18.183594 C 24.078125 17.714844 24.449219 17.277344 24.84375 16.851562 C 24.949219 16.734375 25.054688 16.617188 25.15625 16.5 C 27.351562 14.003906 30.640625 12.511719 33.917969 12.207031 C 34.15625 12.195312 34.394531 12.1875 34.632812 12.179688 Z M 34.632812 12.179688 "/>
<path style=" stroke:none;fill-rule:nonzero;fill:rgb(40.392157%,40.392157%,40.392157%);fill-opacity:1;" d="M 12 8.410156 C 12.046875 8.433594 12.09375 8.457031 12.144531 8.484375 C 11.105469 9.519531 10.070312 10.554688 9 11.621094 C 8.953125 11.59375 8.90625 11.570312 8.855469 11.546875 C 10.632812 9.632812 10.632812 9.632812 11.453125 8.941406 C 11.644531 8.773438 11.820312 8.59375 12 8.410156 Z M 12 8.410156 "/>
<path style=" stroke:none;fill-rule:nonzero;fill:rgb(41.568627%,41.568627%,41.568627%);fill-opacity:1;" d="M 26.355469 15.324219 C 26.402344 15.347656 26.453125 15.371094 26.5 15.398438 C 26.003906 15.890625 25.511719 16.386719 25 16.894531 C 24.953125 16.871094 24.90625 16.847656 24.855469 16.824219 C 25.3125 16.320312 25.761719 15.828125 26.285156 15.398438 C 26.308594 15.375 26.332031 15.351562 26.355469 15.324219 Z M 26.355469 15.324219 "/>
</g>
</svg>
